<svg width="24" height="24" viewBox="0 0 24 24" fill="none" xmlns="http://www.w3.org/2000/svg">
<path d="M21 10.4087C21.8639 12.0076 21.7221 13.9978 20.5616 15.505C19.2895 17.1572 15.4395 20.6419 14.1777 21.7697C14.0365 21.8959 13.966 21.959 13.8836 21.9838C13.8118 22.0054 13.7331 22.0054 13.6613 21.9838C13.5789 21.959 13.5084 21.8959 13.3672 21.7697C12.9444 21.3918 12.2312 20.7494 11.4217 20M9.77245 4.67663C8.2174 2.84174 5.62425 2.34816 3.67587 4.02837C1.7275 5.70858 1.4532 8.51781 2.98327 10.505C4.25541 12.1572 8.10538 15.6419 9.36719 16.7697C9.50836 16.8959 9.57894 16.959 9.66128 16.9838C9.73314 17.0054 9.81177 17.0054 9.88363 16.9838C9.96596 16.959 10.0365 16.8959 10.1777 16.7697C11.4395 15.6419 15.2895 12.1572 16.5616 10.505C18.0917 8.51781 17.8509 5.69091 15.869 4.02837C13.8872 2.36584 11.3275 2.84174 9.77245 4.67663Z" stroke="white" stroke-width="2" stroke-linecap="round" stroke-linejoin="round"/>
</svg>
